<?xml version="1.0" encoding="utf-8"?><!-- Uploaded to: SVG Repo, www.svgrepo.com, Generator: SVG Repo Mixer Tools -->
<svg width="800px" height="800px" viewBox="0 0 960 960" fill="none" xmlns="http://www.w3.org/2000/svg">
<path d="M365.052 515.956C350.071 520.051 333.092 509.664 330.995 494.582C328.498 476.405 342.88 463.921 357.562 462.922C367.45 462.223 377.237 460.126 387.125 458.827C397.512 457.429 407.899 455.531 418.286 455.032C438.661 454.033 459.135 453.534 479.509 453.634C488.298 453.634 497.087 455.431 505.777 456.63C513.068 457.629 520.458 458.328 527.549 460.225C546.426 465.019 565.302 469.714 583.879 475.606C595.764 479.401 607.15 484.795 618.436 490.088C624.928 493.084 631.02 497.079 634.815 503.871C643.804 519.851 632.119 538.927 615.04 537.529C614.84 538.028 614.74 538.428 614.541 538.927C607.549 536.33 600.358 534.233 593.567 531.137C575.29 522.847 556.413 516.155 536.738 511.961C527.45 509.963 518.261 507.666 508.973 505.669C505.277 504.87 501.582 504.27 497.787 504.17C477.712 503.471 457.637 501.973 437.662 502.672C423.18 503.172 408.798 506.068 394.516 508.665C384.628 510.363 374.84 513.259 365.052 515.956Z" fill="#000000"/>
<path d="M744.48 462.622C740.884 332.185 618.937 218.028 491.097 209.039C328.3 198.053 214.043 369.838 235.017 520.65C283.856 835.956 743.082 763.946 744.48 462.622ZM659.686 867.316C500.085 871.911 240.71 923.846 136.839 770.238C84.8044 683.546 87.5011 502.672 90.3974 400.8C104.58 144.52 160.31 95.2814 419.985 85.993C474.517 83.9955 478.512 83.9955 530.947 82.6971C617.938 80.4 720.21 68.9143 788.625 134.033C879.811 222.722 854.143 363.546 865.329 479.002C875.216 652.485 887.301 856.929 659.686 867.316Z" fill="#000000"/>
<path d="M369.648 607.641C360.46 608.64 351.87 600.05 349.373 593.558C345.978 584.67 346.976 576.28 353.169 568.49C359.161 560.899 367.95 559.701 376.34 557.903C383.631 556.305 391.121 555.106 398.512 554.008C407.9 552.51 417.288 551.511 426.577 549.713C444.455 546.317 462.432 547.915 480.31 548.215C492.794 548.415 505.378 550.412 517.663 552.809C530.847 555.306 543.93 558.402 556.614 562.497C569.498 566.792 582.082 572.185 594.467 577.978C603.256 582.073 610.048 588.964 611.146 599.251C612.644 614.332 602.657 624.62 586.976 625.518C581.683 623.92 576.19 622.922 571.196 620.724C554.217 613.234 536.839 606.742 518.562 603.146C511.67 601.848 504.879 599.651 497.988 598.352C492.694 597.354 487.301 596.754 482.008 596.555C472.619 596.255 463.231 596.355 453.743 596.555C438.262 596.754 423.181 599.551 408.1 602.747C395.416 605.344 382.432 606.143 369.648 607.641Z" fill="#000000"/>
<path d="M320.91 411.187C325.803 417.479 338.587 421.474 346.178 419.577C359.062 416.281 371.946 413.185 384.93 410.388C392.22 408.79 399.711 407.692 407.202 407.092C421.084 405.994 435.067 404.995 449.049 404.795C462.333 404.596 475.716 405.195 488.999 405.994C501.883 406.793 514.867 407.592 527.551 409.989C542.433 412.785 557.314 416.481 571.796 421.075C590.573 427.067 608.95 434.059 627.426 441.15C635.716 444.346 643.406 448.441 652.895 446.843C664.081 444.945 674.767 431.462 669.074 418.179C665.978 410.988 660.285 406.593 653.494 403.097C630.622 391.512 606.752 382.623 582.183 375.732C566.303 371.337 550.323 366.943 534.143 363.847C518.263 360.85 502.183 359.252 486.103 357.654C475.017 356.456 463.831 355.956 452.645 355.557C442.557 355.257 432.47 355.457 422.483 355.557C419.886 355.557 417.189 355.557 414.592 355.857C405.504 356.855 396.415 357.954 387.327 359.152C378.937 360.251 370.547 361.449 362.258 362.948C354.867 364.246 347.576 366.144 340.185 367.242C325.903 369.34 313.818 381.724 315.217 393.909C314.917 401.999 315.816 404.596 320.91 411.187ZM330.997 494.483C333.094 509.564 349.973 519.951 365.054 515.856C374.842 513.16 384.63 510.263 394.518 508.466C408.8 505.869 423.282 502.973 437.664 502.473C457.639 501.874 477.813 503.272 497.788 503.971C501.484 504.071 505.279 504.67 508.974 505.469C518.263 507.467 527.451 509.764 536.74 511.762C556.415 515.956 575.192 522.648 593.569 530.938C600.36 534.034 607.551 536.131 614.543 538.728C614.742 538.229 614.842 537.829 615.042 537.33C632.121 538.728 643.806 519.652 634.817 503.672C631.022 496.88 624.93 492.985 618.438 489.889C607.152 484.596 595.766 479.102 583.881 475.407C565.304 469.514 546.428 464.82 527.551 460.026C520.46 458.229 513.069 457.43 505.778 456.431C496.989 455.232 488.3 453.435 479.511 453.435C459.137 453.435 438.662 453.934 418.288 454.833C407.901 455.332 397.514 457.23 387.127 458.628C377.239 459.926 367.451 462.024 357.564 462.723C342.982 463.822 328.5 476.406 330.997 494.483ZM349.374 593.559C351.871 600.051 360.46 608.64 369.649 607.642C382.433 606.243 395.416 605.445 408.001 602.748C423.082 599.552 438.163 596.755 453.644 596.556C463.032 596.456 472.42 596.356 481.908 596.556C487.302 596.755 492.695 597.355 497.888 598.353C504.78 599.652 511.571 601.749 518.463 603.147C536.84 606.743 554.118 613.235 571.097 620.725C576.091 622.923 581.584 624.021 586.877 625.519C602.558 624.621 612.545 614.333 611.047 599.252C609.948 588.965 603.157 582.074 594.368 577.979C582.083 572.186 569.499 566.793 556.515 562.498C543.831 558.303 530.647 555.207 517.564 552.81C505.279 550.513 492.695 548.416 480.21 548.216C462.333 547.916 444.355 546.318 426.478 549.714C417.189 551.512 407.801 552.511 398.413 554.009C391.022 555.207 383.631 556.406 376.24 557.904C367.851 559.702 359.062 560.9 353.069 568.491C346.977 576.281 345.978 584.67 349.374 593.559ZM744.48 462.623C742.982 763.946 283.856 835.956 235.017 520.65C214.043 369.839 328.3 198.054 491.097 209.04C619.037 218.029 740.984 332.186 744.48 462.623Z" fill="white"/>
<path d="M346.178 419.577C338.487 421.574 325.803 417.579 320.909 411.187C315.816 404.595 314.917 401.999 314.917 394.009C313.618 381.824 325.603 369.439 339.886 367.342C347.276 366.243 354.567 364.346 361.958 363.047C370.248 361.649 378.637 360.451 387.027 359.252C396.115 358.054 405.204 356.955 414.293 355.956C416.889 355.657 419.586 355.657 422.183 355.657C432.27 355.657 442.357 355.357 452.345 355.657C463.531 356.056 474.717 356.555 485.803 357.754C501.883 359.452 517.963 360.95 533.843 363.946C550.023 367.042 566.003 371.337 581.883 375.831C606.452 382.723 630.323 391.612 653.194 403.197C659.985 406.693 665.778 411.087 668.774 418.278C674.467 431.562 663.681 445.045 652.595 446.942C643.107 448.54 635.416 444.446 627.127 441.25C608.75 434.158 590.273 427.167 571.496 421.175C557.014 416.58 542.233 412.885 527.251 410.089C514.567 407.791 501.583 406.992 488.7 406.094C475.416 405.195 462.033 404.695 448.75 404.895C434.767 405.095 420.884 406.094 406.902 407.192C399.411 407.791 391.921 408.89 384.63 410.488C371.846 413.185 358.962 416.281 346.178 419.577Z" fill="#000000"/>
</svg>